<svg xmlns="http://www.w3.org/2000/svg" xmlns:xlink="http://www.w3.org/1999/xlink" width="881pt" height="332pt" viewBox="0.00 0.00 880.83 332.00">
<g id="graph0" class="graph" transform="scale(1 1) rotate(0) translate(4 328)">
<title>Tunnelointimikroskopia</title>
<polygon fill="white" stroke="none" points="-4,4 -4,-328 876.83,-328 876.83,4 -4,4"/>
<!-- main -->
<g id="node1" class="node">
<title>main</title>
<polygon fill="none" stroke="black" points="371.55,-324 182.93,-324 182.93,-288 371.55,-288 371.55,-324"/>
<text text-anchor="middle" x="277.24" y="-301.8" font-family="Times,serif" font-size="14.00">Electron tunneling microscopy</text>
</g>
<!-- phenomena -->
<g id="node2" class="node">
<title>phenomena</title>
<polygon fill="none" stroke="black" points="277.64,-252 150.85,-252 150.85,-216 277.64,-216 277.64,-252"/>
<text text-anchor="middle" x="214.24" y="-229.8" font-family="Times,serif" font-size="14.00">Related phenomena</text>
</g>
<!-- main&#45;&gt;phenomena -->
<g id="edge3" class="edge">
<title>main-&gt;phenomena</title>
<path fill="none" stroke="black" d="M261.67,-287.7C254.27,-279.47 245.28,-269.48 237.12,-260.42"/>
<polygon fill="black" stroke="black" points="239.94,-258.32 230.65,-253.23 234.74,-263 239.94,-258.32"/>
</g>
<!-- methods -->
<g id="node3" class="node">
<title>methods</title>
<polygon fill="none" stroke="black" points="427.96,-252 336.52,-252 336.52,-216 427.96,-216 427.96,-252"/>
<text text-anchor="middle" x="382.24" y="-229.8" font-family="Times,serif" font-size="14.00">Methodology</text>
</g>
<!-- main&#45;&gt;methods -->
<g id="edge1" class="edge">
<title>main-&gt;methods</title>
<path fill="none" stroke="black" d="M303.47,-287.52C316.6,-278.76 332.68,-268.04 346.88,-258.58"/>
<polygon fill="black" stroke="black" points="348.71,-261.56 355.09,-253.1 344.83,-255.73 348.71,-261.56"/>
</g>
<!-- q_tunnel -->
<g id="node5" class="node">
<title>q_tunnel</title>
<polygon fill="none" stroke="black" points="124.49,-180 0,-180 0,-144 124.49,-144 124.49,-180"/>
<text text-anchor="middle" x="62.24" y="-157.8" font-family="Times,serif" font-size="14.00">Quantum tunneling</text>
</g>
<!-- phenomena&#45;&gt;q_tunnel -->
<g id="edge4" class="edge">
<title>phenomena-&gt;q_tunnel</title>
<path fill="none" stroke="black" d="M176.28,-215.52C156.35,-206.34 131.71,-194.99 110.44,-185.2"/>
<polygon fill="black" stroke="black" points="111.91,-182.02 101.36,-181.01 108.98,-188.38 111.91,-182.02"/>
</g>
<!-- schrodinger -->
<g id="node6" class="node">
<title>schrodinger</title>
<polygon fill="none" stroke="black" points="286.3,-180 142.19,-180 142.19,-144 286.3,-144 286.3,-180"/>
<text text-anchor="middle" x="214.24" y="-157.8" font-family="Times,serif" font-size="14.00">Schrödinger's equation</text>
</g>
<!-- phenomena&#45;&gt;schrodinger -->
<g id="edge5" class="edge">
<title>phenomena-&gt;schrodinger</title>
<path fill="none" stroke="black" d="M214.24,-215.7C214.24,-208.41 214.24,-199.73 214.24,-191.54"/>
<polygon fill="black" stroke="black" points="217.74,-191.62 214.24,-181.62 210.74,-191.62 217.74,-191.62"/>
</g>
<!-- stm -->
<g id="node4" class="node">
<title>stm</title>
<polygon fill="none" stroke="black" points="544.42,-180 304.07,-180 304.07,-144 544.42,-144 544.42,-180"/>
<text text-anchor="middle" x="424.24" y="-157.8" font-family="Times,serif" font-size="14.00">Scanning Tunneling Microscope (STM)</text>
</g>
<!-- methods&#45;&gt;stm -->
<g id="edge2" class="edge">
<title>methods-&gt;stm</title>
<path fill="none" stroke="black" d="M392.63,-215.7C397.3,-207.9 402.94,-198.51 408.15,-189.83"/>
<polygon fill="black" stroke="black" points="411.06,-191.78 413.2,-181.4 405.06,-188.18 411.06,-191.78"/>
</g>
<!-- implementation -->
<g id="node9" class="node">
<title>implementation</title>
<polygon fill="none" stroke="black" points="476.56,-108 371.92,-108 371.92,-72 476.56,-72 476.56,-108"/>
<text text-anchor="middle" x="424.24" y="-85.8" font-family="Times,serif" font-size="14.00">Implementation</text>
</g>
<!-- stm&#45;&gt;implementation -->
<g id="edge8" class="edge">
<title>stm-&gt;implementation</title>
<path fill="none" stroke="black" d="M424.24,-143.7C424.24,-136.41 424.24,-127.73 424.24,-119.54"/>
<polygon fill="black" stroke="black" points="427.74,-119.62 424.24,-109.62 420.74,-119.62 427.74,-119.62"/>
</g>
<!-- wave_particle -->
<g id="node7" class="node">
<title>wave_particle</title>
<polygon fill="none" stroke="black" points="164.49,-108 27.99,-108 27.99,-72 164.49,-72 164.49,-108"/>
<text text-anchor="middle" x="96.24" y="-85.8" font-family="Times,serif" font-size="14.00">Wave particle duality</text>
</g>
<!-- schrodinger&#45;&gt;wave_particle -->
<g id="edge6" class="edge">
<title>schrodinger-&gt;wave_particle</title>
<path fill="none" stroke="black" d="M184.77,-143.52C169.73,-134.6 151.25,-123.63 135.07,-114.03"/>
<polygon fill="black" stroke="black" points="137.03,-111.12 126.64,-109.03 133.46,-117.15 137.03,-111.12"/>
</g>
<!-- uncertainty -->
<g id="node8" class="node">
<title>uncertainty</title>
<polygon fill="none" stroke="black" points="317.91,-108 182.57,-108 182.57,-72 317.91,-72 317.91,-108"/>
<text text-anchor="middle" x="250.24" y="-85.8" font-family="Times,serif" font-size="14.00">Uncertainty principle</text>
</g>
<!-- schrodinger&#45;&gt;uncertainty -->
<g id="edge7" class="edge">
<title>schrodinger-&gt;uncertainty</title>
<path fill="none" stroke="black" d="M223.14,-143.7C227.11,-135.98 231.88,-126.71 236.3,-118.11"/>
<polygon fill="black" stroke="black" points="239.29,-119.94 240.75,-109.45 233.07,-116.74 239.29,-119.94"/>
</g>
<!-- tip -->
<g id="node10" class="node">
<title>tip</title>
<polygon fill="none" stroke="black" points="122.59,-36 19.9,-36 19.9,0 122.59,0 122.59,-36"/>
<text text-anchor="middle" x="71.24" y="-13.8" font-family="Times,serif" font-size="14.00">Tip preparation</text>
</g>
<!-- implementation&#45;&gt;tip -->
<g id="edge15" class="edge">
<title>implementation-&gt;tip</title>
<path fill="none" stroke="black" d="M371.52,-79.7C300.78,-67.19 179.58,-45.61 134.18,-36.2"/>
<polygon fill="black" stroke="black" points="135.07,-32.82 124.55,-34.12 133.58,-39.66 135.07,-32.82"/>
</g>
<!-- software -->
<g id="node11" class="node">
<title>software</title>
<polygon fill="none" stroke="black" points="207.51,-36 140.97,-36 140.97,0 207.51,0 207.51,-36"/>
<text text-anchor="middle" x="174.24" y="-13.8" font-family="Times,serif" font-size="14.00">Software</text>
</g>
<!-- implementation&#45;&gt;software -->
<g id="edge14" class="edge">
<title>implementation-&gt;software</title>
<path fill="none" stroke="black" d="M371.54,-77.65C331.63,-68.58 275.36,-54.81 218.24,-36.44"/>
<polygon fill="black" stroke="black" points="219.59,-33.2 209,-33.43 217.42,-39.86 219.59,-33.2"/>
</g>
<!-- image_constr -->
<g id="node12" class="node">
<title>image_constr</title>
<polygon fill="none" stroke="black" points="349.09,-36 225.4,-36 225.4,0 349.09,0 349.09,-36"/>
<text text-anchor="middle" x="287.24" y="-13.8" font-family="Times,serif" font-size="14.00">Image construction</text>
</g>
<!-- implementation&#45;&gt;image_constr -->
<g id="edge13" class="edge">
<title>implementation-&gt;image_constr</title>
<path fill="none" stroke="black" d="M390.03,-71.52C372.24,-62.43 350.29,-51.22 331.26,-41.49"/>
<polygon fill="black" stroke="black" points="332.87,-38.38 322.37,-36.95 329.68,-44.62 332.87,-38.38"/>
</g>
<!-- signal -->
<g id="node13" class="node">
<title>signal</title>
<polygon fill="none" stroke="black" points="481.82,-36 366.67,-36 366.67,0 481.82,0 481.82,-36"/>
<text text-anchor="middle" x="424.24" y="-13.8" font-family="Times,serif" font-size="14.00">Signal processing</text>
</g>
<!-- implementation&#45;&gt;signal -->
<g id="edge12" class="edge">
<title>implementation-&gt;signal</title>
<path fill="none" stroke="black" d="M424.24,-71.7C424.24,-64.41 424.24,-55.73 424.24,-47.54"/>
<polygon fill="black" stroke="black" points="427.74,-47.62 424.24,-37.62 420.74,-47.62 427.74,-47.62"/>
</g>
<!-- vibration -->
<g id="node14" class="node">
<title>vibration</title>
<polygon fill="none" stroke="black" points="604.76,-36 499.73,-36 499.73,0 604.76,0 604.76,-36"/>
<text text-anchor="middle" x="552.24" y="-13.8" font-family="Times,serif" font-size="14.00">Noise reduction</text>
</g>
<!-- implementation&#45;&gt;vibration -->
<g id="edge11" class="edge">
<title>implementation-&gt;vibration</title>
<path fill="none" stroke="black" d="M456.21,-71.52C472.68,-62.51 492.95,-51.42 510.63,-41.76"/>
<polygon fill="black" stroke="black" points="512.26,-44.86 519.35,-36.99 508.9,-38.71 512.26,-44.86"/>
</g>
<!-- piezo -->
<g id="node15" class="node">
<title>piezo</title>
<polygon fill="none" stroke="black" points="753.59,-36 622.89,-36 622.89,0 753.59,0 753.59,-36"/>
<text text-anchor="middle" x="688.24" y="-13.8" font-family="Times,serif" font-size="14.00">Precision movement</text>
</g>
<!-- implementation&#45;&gt;piezo -->
<g id="edge10" class="edge">
<title>implementation-&gt;piezo</title>
<path fill="none" stroke="black" d="M477.03,-75C515.51,-64.8 568.25,-50.82 611.4,-39.38"/>
<polygon fill="black" stroke="black" points="612.2,-42.78 620.97,-36.84 610.4,-36.02 612.2,-42.78"/>
</g>
<!-- feedback -->
<g id="node16" class="node">
<title>feedback</title>
<polygon fill="none" stroke="black" points="872.83,-36 771.66,-36 771.66,0 872.83,0 872.83,-36"/>
<text text-anchor="middle" x="822.24" y="-13.8" font-family="Times,serif" font-size="14.00">Control system</text>
</g>
<!-- implementation&#45;&gt;feedback -->
<g id="edge9" class="edge">
<title>implementation-&gt;feedback</title>
<path fill="none" stroke="black" d="M477.01,-82.73C541.55,-74.62 654.27,-59.02 760.08,-36.33"/>
<polygon fill="black" stroke="black" points="760.78,-39.76 769.81,-34.21 759.29,-32.92 760.78,-39.76"/>
</g>
</g>
</svg>